<?xml version="1.0" standalone="no"?>
<!DOCTYPE svg PUBLIC "-//W3C//DTD SVG 20010904//EN"
 "http://www.w3.org/TR/2001/REC-SVG-20010904/DTD/svg10.dtd">
<svg version="1.0" xmlns="http://www.w3.org/2000/svg"
 width="512.000000pt" height="512.000000pt" viewBox="0 0 512.000000 512.000000"
 preserveAspectRatio="xMidYMid meet">
<metadata>
Created by potrace 1.14, written by Peter Selinger 2001-2017
</metadata>
<g transform="translate(0.000000,512.000000) scale(0.100000,-0.100000)"
fill="#000000" stroke="none">
<path d="M859 5096 c-55 -19 -161 -81 -221 -128 -290 -229 -420 -584 -349
-957 27 -140 82 -309 150 -461 l51 -115 -48 -40 c-158 -133 -286 -310 -361
-496 -91 -228 -103 -499 -30 -717 54 -163 215 -436 370 -627 433 -534 1137
-1060 1767 -1320 237 -97 568 -183 857 -222 79 -10 540 -10 630 0 352 41 733
150 1050 302 144 68 203 119 210 182 7 62 -69 134 -181 171 -132 43 -239 54
-503 49 -135 -3 -253 -7 -261 -10 -10 -4 -32 18 -70 74 -59 85 -164 193 -245
250 -120 86 -346 206 -515 274 -52 21 -99 41 -103 45 -4 4 -10 20 -13 36 -79
449 -238 902 -455 1290 -232 418 -494 696 -880 936 -32 20 -203 73 -287 89
-138 26 -376 -6 -528 -71 -25 -11 -47 -20 -49 -20 -9 0 -75 209 -105 330 -64
261 -47 483 44 603 44 58 145 137 233 183 136 71 191 169 149 267 -20 47 -53
73 -123 96 -71 24 -131 26 -184 7z"/>
<path d="M2729 4686 c-2 -2 -34 -6 -71 -10 -406 -35 -721 -239 -890 -576 -21
-41 -38 -85 -38 -97 0 -37 21 -71 52 -84 16 -7 82 -43 146 -81 135 -80 155
-82 223 -24 84 72 183 106 297 101 143 -5 142 -1 35 -134 -96 -120 -129 -175
-136 -232 -4 -33 1 -41 74 -120 44 -46 89 -99 102 -116 12 -18 34 -35 50 -39
59 -13 176 -19 257 -13 104 7 372 3 420 -6 75 -14 200 -48 315 -85 162 -52
223 -63 297 -55 104 12 208 67 317 171 31 29 59 50 63 48 10 -7 1 -129 -18
-239 -3 -16 -18 -60 -34 -98 -78 -185 -248 -298 -490 -324 -85 -9 -254 -9
-355 1 -139 14 -163 13 -210 -3 -45 -16 -94 -55 -121 -97 -14 -20 -11 -30 30
-126 24 -57 56 -139 71 -181 31 -86 21 -81 144 -78 119 2 268 39 464 114 l68
27 -4 -28 c-8 -51 -73 -209 -118 -287 -51 -91 -124 -169 -200 -218 -61 -38
-130 -67 -159 -67 -11 0 -20 -5 -20 -11 0 -19 85 -132 133 -176 39 -36 49 -41
83 -37 250 28 455 105 648 243 187 134 319 331 372 559 24 101 30 135 49 277
2 22 7 130 10 240 15 574 15 565 34 670 23 128 80 301 130 398 39 75 143 242
160 257 4 3 18 21 33 40 30 40 51 63 122 138 l51 54 -85 -7 c-47 -4 -96 -8
-110 -10 -14 -2 -47 -6 -75 -10 -251 -33 -435 -143 -584 -350 -130 -180 -293
-283 -462 -293 -222 -12 -371 109 -372 302 0 83 17 132 80 228 44 68 156 180
226 226 l38 25 -33 14 c-68 29 -246 84 -362 112 -134 32 -155 36 -271 52 -76
10 -369 22 -376 15z"/>
</g>
</svg>
